<mxfile host="app.diagrams.net" agent="Mozilla/5.0 (Windows NT 10.0; Win64; x64) AppleWebKit/537.36 (KHTML, like Gecko) Chrome/132.0.0.0 Safari/537.36 Edg/132.0.0.0" version="26.0.11">
  <diagram name="Page-1" id="4TXn8ITX5QztCAGTQ0My">
    <mxGraphModel dx="2472" dy="2059" grid="1" gridSize="10" guides="1" tooltips="1" connect="1" arrows="1" fold="1" page="1" pageScale="1" pageWidth="850" pageHeight="1100" math="0" shadow="0">
      <root>
        <mxCell id="0" />
        <mxCell id="1" parent="0" />
        <mxCell id="oVljA6R5P4OXqW9oThgL-24" value="" style="rounded=1;whiteSpace=wrap;html=1;dashed=1;" vertex="1" parent="1">
          <mxGeometry x="85" y="570" width="275" height="190" as="geometry" />
        </mxCell>
        <mxCell id="oVljA6R5P4OXqW9oThgL-18" value="Region" style="sketch=0;outlineConnect=0;html=1;whiteSpace=wrap;fontSize=12;fontStyle=0;shape=mxgraph.aws4.group;grIcon=mxgraph.aws4.group_region;strokeColor=#3399FF;fillColor=none;verticalAlign=top;align=left;spacingLeft=30;dashed=1;strokeWidth=2;" vertex="1" parent="1">
          <mxGeometry x="-170" width="810" height="840" as="geometry" />
        </mxCell>
        <mxCell id="oVljA6R5P4OXqW9oThgL-1" value="VPC" style="sketch=0;outlineConnect=0;gradientColor=none;html=1;whiteSpace=wrap;fontSize=12;fontStyle=0;shape=mxgraph.aws4.group;grIcon=mxgraph.aws4.group_vpc;strokeColor=#879196;fillColor=none;verticalAlign=top;align=left;spacingLeft=30;fontColor=#879196;dashed=0;" vertex="1" parent="1">
          <mxGeometry x="40" y="40" width="560" height="760" as="geometry" />
        </mxCell>
        <mxCell id="oVljA6R5P4OXqW9oThgL-21" style="edgeStyle=orthogonalEdgeStyle;rounded=0;orthogonalLoop=1;jettySize=auto;html=1;" edge="1" parent="1" source="oVljA6R5P4OXqW9oThgL-5" target="oVljA6R5P4OXqW9oThgL-6">
          <mxGeometry relative="1" as="geometry">
            <Array as="points">
              <mxPoint x="290" y="160" />
              <mxPoint x="290" y="160" />
            </Array>
          </mxGeometry>
        </mxCell>
        <mxCell id="oVljA6R5P4OXqW9oThgL-22" style="edgeStyle=orthogonalEdgeStyle;rounded=0;orthogonalLoop=1;jettySize=auto;html=1;" edge="1" parent="1" source="oVljA6R5P4OXqW9oThgL-5" target="oVljA6R5P4OXqW9oThgL-12">
          <mxGeometry relative="1" as="geometry" />
        </mxCell>
        <mxCell id="oVljA6R5P4OXqW9oThgL-5" value="Amazon API Gateway" style="sketch=0;outlineConnect=0;fontColor=#232F3E;gradientColor=none;strokeColor=#ffffff;fillColor=#232F3E;dashed=0;verticalLabelPosition=middle;verticalAlign=bottom;align=center;html=1;whiteSpace=wrap;fontSize=10;fontStyle=1;spacing=3;shape=mxgraph.aws4.productIcon;prIcon=mxgraph.aws4.api_gateway;" vertex="1" parent="1">
          <mxGeometry x="120" y="120" width="80" height="110" as="geometry" />
        </mxCell>
        <mxCell id="oVljA6R5P4OXqW9oThgL-6" value="AWS Lambda" style="sketch=0;outlineConnect=0;fontColor=#232F3E;gradientColor=none;strokeColor=#ffffff;fillColor=#232F3E;dashed=0;verticalLabelPosition=middle;verticalAlign=bottom;align=center;html=1;whiteSpace=wrap;fontSize=10;fontStyle=1;spacing=3;shape=mxgraph.aws4.productIcon;prIcon=mxgraph.aws4.lambda;" vertex="1" parent="1">
          <mxGeometry x="360" y="120" width="80" height="105" as="geometry" />
        </mxCell>
        <mxCell id="oVljA6R5P4OXqW9oThgL-7" value="Amazon S3" style="sketch=0;outlineConnect=0;fontColor=#232F3E;gradientColor=none;strokeColor=#ffffff;fillColor=#232F3E;dashed=0;verticalLabelPosition=middle;verticalAlign=bottom;align=center;html=1;whiteSpace=wrap;fontSize=10;fontStyle=1;spacing=3;shape=mxgraph.aws4.productIcon;prIcon=mxgraph.aws4.s3;" vertex="1" parent="1">
          <mxGeometry x="-110" y="450" width="80" height="100" as="geometry" />
        </mxCell>
        <mxCell id="oVljA6R5P4OXqW9oThgL-26" style="edgeStyle=orthogonalEdgeStyle;rounded=0;orthogonalLoop=1;jettySize=auto;html=1;" edge="1" parent="1" source="oVljA6R5P4OXqW9oThgL-8" target="oVljA6R5P4OXqW9oThgL-11">
          <mxGeometry relative="1" as="geometry">
            <Array as="points">
              <mxPoint x="400" y="550" />
            </Array>
          </mxGeometry>
        </mxCell>
        <mxCell id="oVljA6R5P4OXqW9oThgL-8" value="Amazon EC2" style="sketch=0;outlineConnect=0;fontColor=#232F3E;gradientColor=none;strokeColor=#ffffff;fillColor=#232F3E;dashed=0;verticalLabelPosition=middle;verticalAlign=bottom;align=center;html=1;whiteSpace=wrap;fontSize=10;fontStyle=1;spacing=3;shape=mxgraph.aws4.productIcon;prIcon=mxgraph.aws4.ec2;" vertex="1" parent="1">
          <mxGeometry x="360" y="320" width="80" height="100" as="geometry" />
        </mxCell>
        <mxCell id="oVljA6R5P4OXqW9oThgL-32" style="edgeStyle=orthogonalEdgeStyle;rounded=0;orthogonalLoop=1;jettySize=auto;html=1;" edge="1" parent="1" source="oVljA6R5P4OXqW9oThgL-9" target="oVljA6R5P4OXqW9oThgL-10">
          <mxGeometry relative="1" as="geometry">
            <Array as="points">
              <mxPoint x="-160" y="160" />
              <mxPoint x="-160" y="160" />
            </Array>
          </mxGeometry>
        </mxCell>
        <mxCell id="oVljA6R5P4OXqW9oThgL-9" value="" style="sketch=0;aspect=fixed;pointerEvents=1;shadow=0;dashed=0;html=1;strokeColor=none;labelPosition=center;verticalLabelPosition=bottom;verticalAlign=top;align=center;fillColor=#00188D;shape=mxgraph.azure.user" vertex="1" parent="1">
          <mxGeometry x="-420" y="120" width="75.2" height="80" as="geometry" />
        </mxCell>
        <mxCell id="oVljA6R5P4OXqW9oThgL-20" style="edgeStyle=orthogonalEdgeStyle;rounded=0;orthogonalLoop=1;jettySize=auto;html=1;" edge="1" parent="1">
          <mxGeometry relative="1" as="geometry">
            <mxPoint x="-40" y="160" as="sourcePoint" />
            <mxPoint x="120" y="160" as="targetPoint" />
          </mxGeometry>
        </mxCell>
        <mxCell id="oVljA6R5P4OXqW9oThgL-10" value="Amazon Route 53" style="sketch=0;outlineConnect=0;fontColor=#232F3E;gradientColor=none;strokeColor=#ffffff;fillColor=#232F3E;dashed=0;verticalLabelPosition=middle;verticalAlign=bottom;align=center;html=1;whiteSpace=wrap;fontSize=10;fontStyle=1;spacing=3;shape=mxgraph.aws4.productIcon;prIcon=mxgraph.aws4.route_53;" vertex="1" parent="1">
          <mxGeometry x="-120" y="120" width="80" height="110" as="geometry" />
        </mxCell>
        <mxCell id="oVljA6R5P4OXqW9oThgL-11" value="Amazon EKS" style="sketch=0;outlineConnect=0;fontColor=#232F3E;gradientColor=none;strokeColor=#ffffff;fillColor=#232F3E;dashed=0;verticalLabelPosition=middle;verticalAlign=bottom;align=center;html=1;whiteSpace=wrap;fontSize=10;fontStyle=1;spacing=3;shape=mxgraph.aws4.productIcon;prIcon=mxgraph.aws4.eks;" vertex="1" parent="1">
          <mxGeometry x="120" y="520" width="80" height="100" as="geometry" />
        </mxCell>
        <mxCell id="oVljA6R5P4OXqW9oThgL-12" value="Network Load Balancer" style="sketch=0;outlineConnect=0;fontColor=#232F3E;gradientColor=none;strokeColor=#ffffff;fillColor=#232F3E;dashed=0;verticalLabelPosition=middle;verticalAlign=bottom;align=center;html=1;whiteSpace=wrap;fontSize=10;fontStyle=1;spacing=3;shape=mxgraph.aws4.productIcon;prIcon=mxgraph.aws4.network_load_balancer;" vertex="1" parent="1">
          <mxGeometry x="120" y="320" width="80" height="110" as="geometry" />
        </mxCell>
        <mxCell id="oVljA6R5P4OXqW9oThgL-17" value="Amazon CloudWatch" style="sketch=0;outlineConnect=0;fontColor=#232F3E;gradientColor=none;strokeColor=#ffffff;fillColor=#232F3E;dashed=0;verticalLabelPosition=middle;verticalAlign=bottom;align=center;html=1;whiteSpace=wrap;fontSize=10;fontStyle=1;spacing=3;shape=mxgraph.aws4.productIcon;prIcon=mxgraph.aws4.cloudwatch;" vertex="1" parent="1">
          <mxGeometry x="440" y="635" width="80" height="110" as="geometry" />
        </mxCell>
        <mxCell id="oVljA6R5P4OXqW9oThgL-37" style="edgeStyle=orthogonalEdgeStyle;rounded=0;orthogonalLoop=1;jettySize=auto;html=1;" edge="1" parent="1" source="oVljA6R5P4OXqW9oThgL-19">
          <mxGeometry relative="1" as="geometry">
            <mxPoint x="-180" y="494.00000000000045" as="targetPoint" />
          </mxGeometry>
        </mxCell>
        <mxCell id="oVljA6R5P4OXqW9oThgL-19" value="" style="shape=image;html=1;verticalAlign=top;verticalLabelPosition=bottom;labelBackgroundColor=#ffffff;imageAspect=0;aspect=fixed;image=https://cdn1.iconfinder.com/data/icons/picons-social/57/github-128.png" vertex="1" parent="1">
          <mxGeometry x="-386" y="430" width="128" height="128" as="geometry" />
        </mxCell>
        <mxCell id="oVljA6R5P4OXqW9oThgL-23" style="edgeStyle=orthogonalEdgeStyle;rounded=0;orthogonalLoop=1;jettySize=auto;html=1;" edge="1" parent="1" source="oVljA6R5P4OXqW9oThgL-12" target="oVljA6R5P4OXqW9oThgL-11">
          <mxGeometry relative="1" as="geometry" />
        </mxCell>
        <mxCell id="oVljA6R5P4OXqW9oThgL-27" value="" style="group" vertex="1" connectable="0" parent="1">
          <mxGeometry x="115" y="660" width="200" height="60" as="geometry" />
        </mxCell>
        <mxCell id="oVljA6R5P4OXqW9oThgL-25" value="" style="rounded=1;whiteSpace=wrap;html=1;fillColor=#d5e8d4;strokeColor=#82b366;" vertex="1" parent="oVljA6R5P4OXqW9oThgL-27">
          <mxGeometry width="200" height="60" as="geometry" />
        </mxCell>
        <mxCell id="oVljA6R5P4OXqW9oThgL-13" value="" style="aspect=fixed;sketch=0;html=1;dashed=0;whitespace=wrap;verticalLabelPosition=bottom;verticalAlign=top;fillColor=#2875E2;strokeColor=#ffffff;points=[[0.005,0.63,0],[0.1,0.2,0],[0.9,0.2,0],[0.5,0,0],[0.995,0.63,0],[0.72,0.99,0],[0.5,1,0],[0.28,0.99,0]];shape=mxgraph.kubernetes.icon2;kubernetesLabel=1;prIcon=pod" vertex="1" parent="oVljA6R5P4OXqW9oThgL-27">
          <mxGeometry x="14" y="6" width="50" height="48" as="geometry" />
        </mxCell>
        <mxCell id="oVljA6R5P4OXqW9oThgL-14" value="" style="aspect=fixed;sketch=0;html=1;dashed=0;whitespace=wrap;verticalLabelPosition=bottom;verticalAlign=top;fillColor=#2875E2;strokeColor=#ffffff;points=[[0.005,0.63,0],[0.1,0.2,0],[0.9,0.2,0],[0.5,0,0],[0.995,0.63,0],[0.72,0.99,0],[0.5,1,0],[0.28,0.99,0]];shape=mxgraph.kubernetes.icon2;kubernetesLabel=1;prIcon=pod" vertex="1" parent="oVljA6R5P4OXqW9oThgL-27">
          <mxGeometry x="54" y="6" width="50" height="48" as="geometry" />
        </mxCell>
        <mxCell id="oVljA6R5P4OXqW9oThgL-15" value="" style="aspect=fixed;sketch=0;html=1;dashed=0;whitespace=wrap;verticalLabelPosition=bottom;verticalAlign=top;fillColor=#2875E2;strokeColor=#ffffff;points=[[0.005,0.63,0],[0.1,0.2,0],[0.9,0.2,0],[0.5,0,0],[0.995,0.63,0],[0.72,0.99,0],[0.5,1,0],[0.28,0.99,0]];shape=mxgraph.kubernetes.icon2;kubernetesLabel=1;prIcon=pod" vertex="1" parent="oVljA6R5P4OXqW9oThgL-27">
          <mxGeometry x="94" y="6" width="50" height="48" as="geometry" />
        </mxCell>
        <mxCell id="oVljA6R5P4OXqW9oThgL-16" value="" style="aspect=fixed;sketch=0;html=1;dashed=0;whitespace=wrap;verticalLabelPosition=bottom;verticalAlign=top;fillColor=#2875E2;strokeColor=#ffffff;points=[[0.005,0.63,0],[0.1,0.2,0],[0.9,0.2,0],[0.5,0,0],[0.995,0.63,0],[0.72,0.99,0],[0.5,1,0],[0.28,0.99,0]];shape=mxgraph.kubernetes.icon2;kubernetesLabel=1;prIcon=pod" vertex="1" parent="oVljA6R5P4OXqW9oThgL-27">
          <mxGeometry x="134" y="6" width="50" height="48" as="geometry" />
        </mxCell>
        <mxCell id="oVljA6R5P4OXqW9oThgL-28" style="edgeStyle=orthogonalEdgeStyle;rounded=0;orthogonalLoop=1;jettySize=auto;html=1;" edge="1" parent="1" source="oVljA6R5P4OXqW9oThgL-25" target="oVljA6R5P4OXqW9oThgL-17">
          <mxGeometry relative="1" as="geometry" />
        </mxCell>
        <mxCell id="oVljA6R5P4OXqW9oThgL-29" style="edgeStyle=orthogonalEdgeStyle;rounded=0;orthogonalLoop=1;jettySize=auto;html=1;entryX=0.224;entryY=0.027;entryDx=0;entryDy=0;entryPerimeter=0;" edge="1" parent="1" source="oVljA6R5P4OXqW9oThgL-11" target="oVljA6R5P4OXqW9oThgL-25">
          <mxGeometry relative="1" as="geometry" />
        </mxCell>
        <mxCell id="oVljA6R5P4OXqW9oThgL-30" value="Terraform S3 backend state" style="text;html=1;align=center;verticalAlign=middle;whiteSpace=wrap;rounded=0;fontSize=15;" vertex="1" parent="1">
          <mxGeometry x="-127.5" y="558" width="115" height="30" as="geometry" />
        </mxCell>
        <mxCell id="oVljA6R5P4OXqW9oThgL-31" value="api.dev.devopslite.com" style="text;html=1;align=center;verticalAlign=middle;whiteSpace=wrap;rounded=0;fontSize=15;" vertex="1" parent="1">
          <mxGeometry x="-300" y="160" width="90" height="30" as="geometry" />
        </mxCell>
        <mxCell id="oVljA6R5P4OXqW9oThgL-33" value="Authorazation" style="text;html=1;align=center;verticalAlign=middle;whiteSpace=wrap;rounded=0;fontSize=15;" vertex="1" parent="1">
          <mxGeometry x="240" y="160" width="90" height="30" as="geometry" />
        </mxCell>
        <mxCell id="oVljA6R5P4OXqW9oThgL-34" value="Nginx ingress" style="text;html=1;align=center;verticalAlign=middle;whiteSpace=wrap;rounded=0;fontSize=15;" vertex="1" parent="1">
          <mxGeometry x="160" y="620" width="120" height="30" as="geometry" />
        </mxCell>
        <mxCell id="oVljA6R5P4OXqW9oThgL-35" value="Jenkins deployment job" style="text;html=1;align=center;verticalAlign=middle;whiteSpace=wrap;rounded=0;fontSize=15;" vertex="1" parent="1">
          <mxGeometry x="220" y="520" width="160" height="30" as="geometry" />
        </mxCell>
        <mxCell id="oVljA6R5P4OXqW9oThgL-36" value="Jenkins Server" style="text;html=1;align=center;verticalAlign=middle;whiteSpace=wrap;rounded=0;fontSize=15;" vertex="1" parent="1">
          <mxGeometry x="440" y="350" width="110" height="30" as="geometry" />
        </mxCell>
        <mxCell id="oVljA6R5P4OXqW9oThgL-38" value="Terraform apply" style="text;html=1;align=center;verticalAlign=middle;whiteSpace=wrap;rounded=0;fontSize=15;" vertex="1" parent="1">
          <mxGeometry x="-258" y="510" width="60" height="30" as="geometry" />
        </mxCell>
      </root>
    </mxGraphModel>
  </diagram>
</mxfile>
